Coordinates
version=1
nRows=65
nColumns=12
inDegrees=yes

Units are S.I. units (second, meters, Newtons, ...)
Angles are in degrees

endheader
time	SC_y	SC_z	SC_x	AC_y	AC_z	AC_x	GH_y	GH_z	GH_yy	EL_x	PS_y
       0.0               -34.6         -2.665          59.21          39.84         -10.74          5.018         -131.1          75.12          11.52          110.9          31.14
   0.04855               -34.6         -2.663          59.21          39.84         -10.74          5.018         -131.0          75.11           11.5          110.9          31.15
   0.09711               -34.6         -2.662          59.21          39.84         -10.74          5.017         -131.0           75.1          11.48          110.9          31.16
    0.1457               -34.6          -2.66          59.21          39.84         -10.74          5.017         -131.0          75.09          11.46          110.9          31.18
    0.1942              -34.59         -2.657          59.21          39.84         -10.74          5.016         -130.9          75.08          11.44          110.9          31.19
    0.2428              -34.59         -2.655          59.21          39.84         -10.74          5.016         -130.9          75.07          11.41          110.8          31.21
    0.2913              -34.59         -2.653          59.21          39.84         -10.74          5.015         -130.8          75.06          11.39          110.8          31.22
    0.3399              -34.59          -2.65           59.2          39.84         -10.74          5.015         -130.7          75.05          11.36          110.8          31.24
    0.3884              -34.59         -2.648           59.2          39.84         -10.73          5.014         -130.7          75.04          11.34          110.8          31.26
     0.437              -34.59         -2.645           59.2          39.83         -10.73          5.013         -130.6          75.02          11.31          110.8          31.28
    0.4855              -34.58         -2.641           59.2          39.83         -10.73          5.013         -130.5          75.01          11.27          110.8           31.3
    0.5341              -34.58         -2.638           59.2          39.83         -10.73          5.012         -130.4          74.99          11.24          110.7          31.32
    0.5826              -34.58         -2.634           59.2          39.83         -10.73          5.011         -130.3          74.98           11.2          110.7          31.35
    0.6312              -34.58          -2.63           59.2          39.83         -10.72           5.01         -130.3          74.96          11.16          110.7          31.38
    0.6797              -34.57         -2.626           59.2          39.83         -10.72          5.009         -130.1          74.94          11.12          110.6          31.41
    0.7283              -34.57         -2.621          59.19          39.83         -10.72          5.008         -130.0          74.92          11.07          110.6          31.44
    0.7768              -34.57         -2.616          59.19          39.83         -10.72          5.007         -129.9          74.89          11.02          110.6          31.47
    0.8254              -34.56         -2.611          59.19          39.82         -10.71          5.006         -129.8          74.87          10.96          110.5          31.51
     0.874              -34.56         -2.605          59.19          39.82         -10.71          5.004         -129.6          74.84           10.9          110.5          31.55
    0.9225              -34.55         -2.598          59.19          39.82          -10.7          5.003         -129.5          74.81          10.83          110.5           31.6
    0.9711              -34.55         -2.591          59.18          39.82          -10.7          5.001         -129.3          74.77          10.75          110.4          31.65
      1.02              -34.54         -2.583          59.18          39.82          -10.7          4.999         -129.1          74.74          10.67          110.3           31.7
     1.068              -34.54         -2.574          59.18          39.81         -10.69          4.997         -128.9           74.7          10.58          110.3          31.76
     1.117              -34.53         -2.565          59.17          39.81         -10.68          4.995         -128.7          74.65          10.48          110.2          31.83
     1.165              -34.52         -2.554          59.17          39.81         -10.68          4.993         -128.4           74.6          10.37          110.1           31.9
     1.214              -34.52         -2.542          59.16           39.8         -10.67           4.99         -128.1          74.55          10.25          110.1          31.98
     1.262              -34.51         -2.528          59.16           39.8         -10.66          4.987         -127.8          74.48          10.11          110.0          32.08
     1.311               -34.5         -2.513          59.15           39.8         -10.65          4.983         -127.4          74.41          9.952          109.9          32.18
     1.359              -34.48         -2.496          59.15          39.79         -10.64           4.98         -127.0          74.33          9.775          109.7           32.3
     1.408              -34.47         -2.476          59.14          39.79         -10.63          4.975         -126.5          74.24          9.574          109.6          32.43
     1.457              -34.46         -2.454          59.13          39.78         -10.62           4.97         -126.0          74.14          9.345          109.5          32.58
     1.505              -34.44         -2.428          59.12          39.77          -10.6          4.964         -125.4          74.02          9.082          109.3          32.76
     1.554              -34.42         -2.399          59.11          39.76         -10.59          4.958         -124.7          73.89          8.778          109.1          32.96
     1.602              -34.39         -2.365           59.1          39.75         -10.57           4.95         -123.8          73.73          8.425          108.8           33.2
     1.651              -34.37         -2.325          59.08          39.74         -10.54          4.941         -122.9          73.54          8.013          108.6          33.47
     1.699              -34.33         -2.277          59.07          39.73         -10.51           4.93         -121.7          73.32          7.526          108.2           33.8
     1.748               -34.3         -2.221          59.05          39.71         -10.48          4.917         -120.4          73.06          6.948          107.8          34.18
     1.796              -34.25         -2.154          59.02          39.69         -10.44          4.902         -118.8          72.75          6.254          107.4          34.64
     1.845              -34.19         -2.072          58.99          39.67         -10.39          4.883         -116.8          72.37          5.416          106.8           35.2
     1.894              -34.13         -1.972          58.95          39.64         -10.33          4.861         -114.4          71.91          4.391          106.1          35.88
     1.942              -34.04          -1.85          58.91           39.6         -10.26          4.833         -111.4          71.34          3.127          105.3          36.73
     1.991              -33.94         -1.696          58.85          39.55         -10.17          4.798         -107.7          70.63           1.55          104.2          37.78
     2.039               -33.8         -1.503          58.78           39.5         -10.05          4.754         -103.1          69.74        -0.4358          102.9           39.1
     2.088              -33.64         -1.258          58.69          39.42         -9.904          4.699         -97.15          68.61         -2.961          101.2          40.78
     2.136              -33.42        -0.9437          58.58          39.33         -9.716          4.628         -89.57          67.15         -6.192          98.99          42.93
     2.185              -33.15        -0.5405          58.43          39.21         -9.476          4.536         -79.85          65.29         -10.34           96.2          45.69
     2.233              -32.79       -0.02556          58.24          39.06         -9.168          4.419         -67.43           62.9         -15.64          92.63          49.22
     2.282              -32.35         0.6219           58.0          38.87         -8.781          4.272         -51.81          59.91          -22.3          88.15          53.66
     2.331              -31.81          1.411          57.71          38.63          -8.31          4.094         -32.78          56.26         -30.42          82.68          59.06
     2.379              -31.19          2.326          57.37          38.36         -7.763          3.886         -10.72          52.02         -39.82          76.35          65.33
     2.428              -30.51          3.316          57.01          38.07         -7.172          3.661          13.17          47.44         -50.01          69.49          72.11
     2.476              -29.83          4.306          56.65          37.78          -6.58          3.437          37.06          42.86          -60.2          62.63           78.9
     2.525               -29.2          5.221          56.31          37.51         -6.034          3.229          59.12          38.63         -69.61          56.29          85.16
     2.573              -28.67           6.01          56.02          37.27         -5.563           3.05          78.15          34.97         -77.73          50.83          90.57
     2.622              -28.22          6.658          55.78          37.08         -5.176          2.904          93.77          31.98         -84.39          46.34           95.0
      2.67              -27.87          7.172          55.59          36.93         -4.868          2.787          106.2           29.6         -89.68          42.77          98.53
     2.719              -27.59          7.576          55.44          36.81         -4.627          2.695          115.9          27.73         -93.83          39.98          101.3
     2.768              -27.38           7.89          55.33          36.72          -4.44          2.624          123.5          26.28         -97.06          37.81          103.4
     2.816              -27.21          8.135          55.24          36.64         -4.293          2.568          129.4          25.14         -99.59          36.11          105.1
     2.865              -27.08          8.328          55.17          36.59         -4.178          2.525          134.1          24.25         -101.6          34.77          106.5
     2.913              -26.97          8.482          55.11          36.54         -4.086           2.49          137.8          23.54         -103.2          33.71          107.5
     2.962              -26.89          8.604          55.06           36.5         -4.013          2.462          140.7          22.97         -104.4          32.86          108.3
      3.01              -26.82          8.704          55.03          36.47         -3.953          2.439          143.1          22.51         -105.4          32.17          109.0
     3.059              -26.77          8.786           55.0          36.45         -3.905          2.421          145.1          22.13         -106.3           31.6          109.6
     3.107              -26.72          8.853          54.97          36.43         -3.864          2.406          146.7          21.82         -107.0          31.13          110.0
